<svg width="55" height="47" viewBox="0 0 55 47" fill="none" xmlns="http://www.w3.org/2000/svg">
<rect x="0.736816" y="0.507812" width="54" height="46" rx="5" fill="#75ACB1"/>
<path d="M22.257 17.5734C21.8665 17.964 21.8665 18.5971 22.257 18.9876C22.6475 19.3782 23.2807 19.3782 23.6712 18.9876L22.257 17.5734ZM27.7368 13.5078L28.4439 12.8007C28.0534 12.4102 27.4202 12.4102 27.0297 12.8007L27.7368 13.5078ZM31.8024 18.9876C32.193 19.3782 32.8261 19.3782 33.2167 18.9876C33.6072 18.5971 33.6072 17.964 33.2167 17.5734L31.8024 18.9876ZM26.7368 26.2351C26.7368 26.7874 27.1845 27.2351 27.7368 27.2351C28.2891 27.2351 28.7368 26.7874 28.7368 26.2351H26.7368ZM38.7368 26.2351C38.7368 25.6828 38.2891 25.2351 37.7368 25.2351C37.1845 25.2351 36.7368 25.6828 36.7368 26.2351H38.7368ZM18.7368 26.2351C18.7368 25.6828 18.2891 25.2351 17.7368 25.2351C17.1845 25.2351 16.7368 25.6828 16.7368 26.2351H18.7368ZM23.6712 18.9876L28.4439 14.2149L27.0297 12.8007L22.257 17.5734L23.6712 18.9876ZM27.0297 14.2149L31.8024 18.9876L33.2167 17.5734L28.4439 12.8007L27.0297 14.2149ZM28.7368 26.2351V13.5078H26.7368V26.2351H28.7368ZM36.7368 26.2351V32.5987H38.7368V26.2351H36.7368ZM36.7368 32.5987C36.7368 32.5746 36.7464 32.5515 36.7634 32.5344L38.1777 33.9487C38.5357 33.5906 38.7368 33.105 38.7368 32.5987H36.7368ZM36.7634 32.5344C36.7805 32.5174 36.8036 32.5078 36.8277 32.5078V34.5078C37.334 34.5078 37.8196 34.3067 38.1777 33.9487L36.7634 32.5344ZM36.8277 32.5078H18.6459V34.5078H36.8277V32.5078ZM18.6459 32.5078C18.67 32.5078 18.6931 32.5174 18.7102 32.5344L17.296 33.9487C17.654 34.3067 18.1396 34.5078 18.6459 34.5078V32.5078ZM18.7102 32.5344C18.7272 32.5515 18.7368 32.5746 18.7368 32.5987H16.7368C16.7368 33.105 16.938 33.5906 17.296 33.9487L18.7102 32.5344ZM18.7368 32.5987V26.2351H16.7368V32.5987H18.7368Z" fill="white"/>
</svg>
