<svg width="55" height="47" viewBox="0 0 55 47" fill="none" xmlns="http://www.w3.org/2000/svg">
<rect x="0.236816" y="0.507812" width="54" height="46" rx="5" fill="#75ACB1"/>
<path d="M15.4189 20.7805L14.8948 19.9289C14.5137 20.1634 14.3348 20.6224 14.4567 21.0529C14.5785 21.4834 14.9715 21.7805 15.4189 21.7805V20.7805ZM39.0552 20.7805V21.7805C39.5026 21.7805 39.8956 21.4834 40.0174 21.0529C40.1393 20.6224 39.9603 20.1634 39.5793 19.9289L39.0552 20.7805ZM27.237 13.5078L27.7611 12.6562C27.4397 12.4584 27.0343 12.4584 26.7129 12.6562L27.237 13.5078ZM20.0552 20.7805C20.0552 20.2283 19.6075 19.7805 19.0552 19.7805C18.5029 19.7805 18.0552 20.2283 18.0552 20.7805H20.0552ZM18.0552 28.9624C18.0552 29.5146 18.5029 29.9624 19.0552 29.9624C19.6075 29.9624 20.0552 29.5146 20.0552 28.9624H18.0552ZM25.5098 20.7805C25.5098 20.2283 25.0621 19.7805 24.5098 19.7805C23.9575 19.7805 23.5098 20.2283 23.5098 20.7805H25.5098ZM23.5098 28.9624C23.5098 29.5146 23.9575 29.9624 24.5098 29.9624C25.0621 29.9624 25.5098 29.5146 25.5098 28.9624H23.5098ZM30.9643 20.7805C30.9643 20.2283 30.5166 19.7805 29.9643 19.7805C29.412 19.7805 28.9643 20.2283 28.9643 20.7805H30.9643ZM28.9643 28.9624C28.9643 29.5146 29.412 29.9624 29.9643 29.9624C30.5166 29.9624 30.9643 29.5146 30.9643 28.9624H28.9643ZM36.4189 20.7805C36.4189 20.2283 35.9711 19.7805 35.4189 19.7805C34.8666 19.7805 34.4189 20.2283 34.4189 20.7805H36.4189ZM34.4189 28.9624C34.4189 29.5146 34.8666 29.9624 35.4189 29.9624C35.9711 29.9624 36.4189 29.5146 36.4189 28.9624H34.4189ZM16.3279 27.9624C15.7757 27.9624 15.3279 28.4101 15.3279 28.9624C15.3279 29.5146 15.7757 29.9624 16.3279 29.9624V27.9624ZM38.1461 29.9624C38.6984 29.9624 39.1461 29.5146 39.1461 28.9624C39.1461 28.4101 38.6984 27.9624 38.1461 27.9624V29.9624ZM14.5098 32.5078C13.9575 32.5078 13.5098 32.9555 13.5098 33.5078C13.5098 34.0601 13.9575 34.5078 14.5098 34.5078V32.5078ZM39.9643 34.5078C40.5166 34.5078 40.9643 34.0601 40.9643 33.5078C40.9643 32.9555 40.5166 32.5078 39.9643 32.5078V34.5078ZM15.4189 21.7805H39.0552V19.7805H15.4189V21.7805ZM39.5793 19.9289L27.7611 12.6562L26.7129 14.3595L38.5311 21.6322L39.5793 19.9289ZM26.7129 12.6562L14.8948 19.9289L15.943 21.6322L27.7611 14.3595L26.7129 12.6562ZM18.0552 20.7805V28.9624H20.0552V20.7805H18.0552ZM23.5098 20.7805V28.9624H25.5098V20.7805H23.5098ZM28.9643 20.7805V28.9624H30.9643V20.7805H28.9643ZM34.4189 20.7805V28.9624H36.4189V20.7805H34.4189ZM16.3279 29.9624H38.1461V27.9624H16.3279V29.9624ZM14.5098 34.5078H39.9643V32.5078H14.5098V34.5078Z" fill="white"/>
</svg>
