<svg width="103" height="104" viewBox="0 0 103 104" fill="none" xmlns="http://www.w3.org/2000/svg">
<rect x="21.7588" y="1.89978" width="59" height="66.9999" fill="#7FB2AC" stroke="#29454D" stroke-width="2"/>
<path d="M28.2349 20.1538C28.2349 17.9447 30.0257 16.1538 32.2349 16.1538H53.7794C55.9886 16.1538 57.7794 17.9447 57.7794 20.1538V68.8997H28.2349V20.1538Z" fill="white" stroke="#29454D" stroke-width="2"/>
<path d="M39.8926 33.1459H38.3401L41.8285 23.4188H43.5183L47.0067 33.1459H45.4542L42.7136 25.1857H42.6379L39.8926 33.1459ZM40.1529 29.3368H45.1891V30.5716H40.1529V29.3368Z" fill="#19888C"/>
<path d="M31.958 42.9285C31.958 42.3763 32.4057 41.9285 32.958 41.9285H34.4436H35.9293C36.4816 41.9285 36.9293 42.3763 36.9293 42.9285V51.254C36.9293 51.8063 36.4816 52.254 35.9293 52.254H34.4436H32.958C32.4057 52.254 31.958 51.8063 31.958 51.254V42.9285Z" fill="#7FB2AC"/>
<path d="M35.4436 39.2509C35.4436 38.6986 34.9959 38.2509 34.4436 38.2509C33.8914 38.2509 33.4436 38.6986 33.4436 39.2509H35.4436ZM33.4436 55.2662C33.4436 55.8185 33.8914 56.2662 34.4436 56.2662C34.9959 56.2662 35.4436 55.8185 35.4436 55.2662H33.4436ZM35.9293 42.9285V51.254H37.9293V42.9285H35.9293ZM32.958 51.254V42.9285H30.958V51.254H32.958ZM32.958 42.9285H34.4436V40.9285H32.958V42.9285ZM34.4436 42.9285H35.9293V40.9285H34.4436V42.9285ZM33.4436 39.2509V41.9285H35.4436V39.2509H33.4436ZM35.9293 51.254H34.4436V53.254H35.9293V51.254ZM34.4436 51.254H32.958V53.254H34.4436V51.254ZM33.4436 52.254V55.2662H35.4436V52.254H33.4436ZM30.958 51.254C30.958 52.3586 31.8534 53.254 32.958 53.254V51.254H32.958H30.958ZM35.9293 51.254H35.9293V53.254C37.0339 53.254 37.9293 52.3586 37.9293 51.254H35.9293ZM37.9293 42.9285C37.9293 41.824 37.0339 40.9285 35.9293 40.9285V42.9285H35.9293H37.9293ZM32.958 42.9285L32.958 42.9285V40.9285C31.8534 40.9285 30.958 41.824 30.958 42.9285H32.958Z" fill="#29454D"/>
<rect x="62.1274" y="33.162" width="13.0167" height="16.1085" rx="3" fill="#19888C" stroke="#29454D" stroke-width="2"/>
<path d="M66.6999 39.6609C66.6999 40.2632 66.2134 40.7514 65.6132 40.7514C65.013 40.7514 64.5264 40.2632 64.5264 39.6609C64.5264 39.0587 65.013 38.5704 65.6132 38.5704C66.2134 38.5704 66.6999 39.0587 66.6999 39.6609Z" fill="#29454D"/>
<path d="M66.6334 42.9143C66.6334 43.5166 66.1468 44.0048 65.5466 44.0048C64.9464 44.0048 64.4599 43.5166 64.4599 42.9143C64.4599 42.3121 64.9464 41.8238 65.5466 41.8238C66.1468 41.8238 66.6334 42.3121 66.6334 42.9143Z" fill="#29454D"/>
<path d="M66.6332 46.168C66.6332 46.7703 66.1467 47.2585 65.5465 47.2585C64.9463 47.2585 64.4597 46.7703 64.4597 46.168C64.4597 45.5658 64.9463 45.0776 65.5465 45.0776C66.1467 45.0776 66.6332 45.5658 66.6332 46.168Z" fill="#29454D"/>
<path d="M69.789 39.6609C69.789 40.2632 69.3025 40.7514 68.7023 40.7514C68.1021 40.7514 67.6155 40.2632 67.6155 39.6609C67.6155 39.0587 68.1021 38.5704 68.7023 38.5704C69.3025 38.5704 69.789 39.0587 69.789 39.6609Z" fill="#29454D"/>
<path d="M69.7225 42.9143C69.7225 43.5166 69.2359 44.0048 68.6358 44.0048C68.0356 44.0048 67.549 43.5166 67.549 42.9143C67.549 42.3121 68.0356 41.8238 68.6358 41.8238C69.2359 41.8238 69.7225 42.3121 69.7225 42.9143Z" fill="#29454D"/>
<path d="M69.7223 46.168C69.7223 46.7703 69.2358 47.2585 68.6356 47.2585C68.0354 47.2585 67.5488 46.7703 67.5488 46.168C67.5488 45.5658 68.0354 45.0776 68.6356 45.0776C69.2358 45.0776 69.7223 45.5658 69.7223 46.168Z" fill="#29454D"/>
<path d="M72.8783 39.6609C72.8783 40.2632 72.3918 40.7514 71.7916 40.7514C71.1914 40.7514 70.7048 40.2632 70.7048 39.6609C70.7048 39.0587 71.1914 38.5704 71.7916 38.5704C72.3918 38.5704 72.8783 39.0587 72.8783 39.6609Z" fill="#29454D"/>
<path d="M72.8119 42.9143C72.8119 43.5166 72.3254 44.0048 71.7252 44.0048C71.125 44.0048 70.6385 43.5166 70.6385 42.9143C70.6385 42.3121 71.125 41.8238 71.7252 41.8238C72.3254 41.8238 72.8119 42.3121 72.8119 42.9143Z" fill="#29454D"/>
<path d="M72.8118 46.168C72.8118 46.7703 72.3252 47.2585 71.725 47.2585C71.1248 47.2585 70.6383 46.7703 70.6383 46.168C70.6383 45.5658 71.1248 45.0776 71.725 45.0776C72.3252 45.0776 72.8118 45.5658 72.8118 46.168Z" fill="#29454D"/>
<path d="M65.7627 36.3831C65.7627 35.84 66.2015 35.3997 66.7427 35.3997H70.9145C71.4558 35.3997 71.8946 35.84 71.8946 36.3831C71.8946 36.9263 71.4558 37.3666 70.9145 37.3666H66.7427C66.2015 37.3666 65.7627 36.9263 65.7627 36.3831Z" fill="#29454D"/>
<path d="M73.2382 24.2724C73.2382 26.7913 71.2041 28.8274 68.7022 28.8274C66.2003 28.8274 64.1663 26.7913 64.1663 24.2724C64.1663 21.7535 66.2003 19.7174 68.7022 19.7174C71.2041 19.7174 73.2382 21.7535 73.2382 24.2724Z" fill="white" stroke="#29454D" stroke-width="2"/>
<path d="M2.52015 99.8998H0.656516L4.84402 88.2634H6.87243L11.0599 99.8998H9.19629L5.90652 90.3771H5.81561L2.52015 99.8998ZM2.83265 95.343H8.87811V96.8202H2.83265V95.343ZM14.3028 88.2634V99.8998H12.604V88.2634H14.3028ZM16.5883 103.173V91.1725H18.2474V92.5873H18.3895C18.488 92.4055 18.63 92.1952 18.8156 91.9566C19.0012 91.718 19.2588 91.5096 19.5883 91.3316C19.9179 91.1498 20.3535 91.0589 20.8952 91.0589C21.5997 91.0589 22.2285 91.2369 22.7815 91.593C23.3345 91.949 23.7683 92.4623 24.0827 93.1327C24.4008 93.8032 24.5599 94.61 24.5599 95.5532C24.5599 96.4964 24.4027 97.3051 24.0883 97.9793C23.7739 98.6498 23.3421 99.1668 22.7929 99.5305C22.2436 99.8903 21.6167 100.07 20.9122 100.07C20.3819 100.07 19.9482 99.9812 19.6111 99.8032C19.2777 99.6252 19.0164 99.4168 18.827 99.1782C18.6376 98.9396 18.4917 98.7274 18.3895 98.5418H18.2872V103.173H16.5883ZM18.2531 95.5361C18.2531 96.1498 18.3421 96.6877 18.5202 97.1498C18.6982 97.6119 18.9558 97.9736 19.2929 98.235C19.63 98.4926 20.0429 98.6214 20.5315 98.6214C21.0391 98.6214 21.4633 98.4869 21.8042 98.218C22.1452 97.9452 22.4027 97.5759 22.577 97.11C22.755 96.6441 22.844 96.1195 22.844 95.5361C22.844 94.9604 22.7569 94.4433 22.5827 93.985C22.4122 93.5267 22.1546 93.1649 21.8099 92.8998C21.469 92.6346 21.0429 92.5021 20.5315 92.5021C20.0391 92.5021 19.6224 92.6289 19.2815 92.8827C18.9444 93.1365 18.6887 93.4907 18.5145 93.9452C18.3402 94.3998 18.2531 94.9301 18.2531 95.5361ZM28.1622 94.718V99.8998H26.4633V88.2634H28.1395V92.593H28.2474C28.452 92.1233 28.7645 91.7502 29.1849 91.4736C29.6054 91.1971 30.1546 91.0589 30.8327 91.0589C31.4311 91.0589 31.9539 91.182 32.4008 91.4282C32.8516 91.6744 33.2001 92.0418 33.4463 92.5305C33.6963 93.0153 33.8213 93.6214 33.8213 94.3486V99.8998H32.1224V94.5532C32.1224 93.913 31.9577 93.4168 31.6281 93.0646C31.2986 92.7085 30.8402 92.5305 30.2531 92.5305C29.8516 92.5305 29.4917 92.6157 29.1736 92.7861C28.8592 92.9566 28.6111 93.2066 28.4292 93.5361C28.2512 93.8619 28.1622 94.2558 28.1622 94.718ZM38.6281 100.093C38.0751 100.093 37.5751 99.9907 37.1281 99.7861C36.6811 99.5778 36.327 99.2767 36.0656 98.8827C35.808 98.4888 35.6792 98.0058 35.6792 97.4339C35.6792 96.9414 35.7739 96.5361 35.9633 96.218C36.1527 95.8998 36.4084 95.6479 36.7304 95.4623C37.0523 95.2767 37.4122 95.1365 37.8099 95.0418C38.2077 94.9471 38.613 94.8752 39.0258 94.8259C39.5486 94.7653 39.9728 94.7161 40.2986 94.6782C40.6243 94.6365 40.8611 94.5702 41.0088 94.4793C41.1565 94.3884 41.2304 94.2407 41.2304 94.0361V93.9964C41.2304 93.5002 41.0902 93.1157 40.8099 92.843C40.5334 92.5702 40.1205 92.4339 39.5713 92.4339C38.9993 92.4339 38.5486 92.5608 38.219 92.8146C37.8933 93.0646 37.6679 93.343 37.5429 93.6498L35.9463 93.2861C36.1357 92.7558 36.4122 92.3278 36.7758 92.0021C37.1433 91.6725 37.5656 91.4339 38.0429 91.2861C38.5202 91.1346 39.022 91.0589 39.5486 91.0589C39.897 91.0589 40.2664 91.1005 40.6565 91.1839C41.0505 91.2634 41.4179 91.4111 41.7588 91.6271C42.1035 91.843 42.3857 92.1517 42.6054 92.5532C42.8251 92.9509 42.9349 93.468 42.9349 94.1043V99.8998H41.2758V98.7066H41.2077C41.0978 98.9263 40.933 99.1422 40.7133 99.3543C40.4936 99.5664 40.2114 99.7426 39.8667 99.8827C39.522 100.023 39.1092 100.093 38.6281 100.093ZM38.9974 98.7293C39.4671 98.7293 39.8686 98.6365 40.202 98.4509C40.5391 98.2653 40.7948 98.0229 40.969 97.7236C41.147 97.4206 41.2361 97.0967 41.2361 96.7521V95.6271C41.1755 95.6877 41.058 95.7445 40.8838 95.7975C40.7133 95.8467 40.5183 95.8903 40.2986 95.9282C40.0789 95.9623 39.8648 95.9945 39.6565 96.0248C39.4482 96.0513 39.2739 96.074 39.1338 96.093C38.8042 96.1346 38.5031 96.2047 38.2304 96.3032C37.9614 96.4017 37.7455 96.5437 37.5827 96.7293C37.4236 96.9111 37.344 97.1536 37.344 97.4566C37.344 97.8771 37.4993 98.1952 37.8099 98.4111C38.1205 98.6233 38.5164 98.7293 38.9974 98.7293ZM49.5684 99.8998V88.2634H53.8298C54.6556 88.2634 55.3393 88.3998 55.8809 88.6725C56.4226 88.9414 56.8279 89.307 57.0969 89.7691C57.3658 90.2274 57.5003 90.7445 57.5003 91.3202C57.5003 91.8051 57.4113 92.2142 57.2332 92.5475C57.0552 92.8771 56.8166 93.1422 56.5173 93.343C56.2219 93.5399 55.8961 93.6839 55.54 93.7748V93.8884C55.9264 93.9074 56.3033 94.0324 56.6707 94.2634C57.0419 94.4907 57.3488 94.8146 57.5912 95.235C57.8336 95.6555 57.9548 96.1668 57.9548 96.7691C57.9548 97.3638 57.8147 97.8979 57.5344 98.3714C57.2578 98.8411 56.8298 99.2142 56.2503 99.4907C55.6707 99.7634 54.9302 99.8998 54.0287 99.8998H49.5684ZM51.3241 98.3941H53.8582C54.6991 98.3941 55.3014 98.2312 55.665 97.9055C56.0287 97.5797 56.2105 97.1725 56.2105 96.6839C56.2105 96.3164 56.1177 95.9793 55.9321 95.6725C55.7465 95.3657 55.4813 95.1214 55.1366 94.9396C54.7957 94.7577 54.3904 94.6668 53.9207 94.6668H51.3241V98.3941ZM51.3241 93.2975H53.6764C54.0703 93.2975 54.4245 93.2217 54.7389 93.0702C55.0571 92.9187 55.309 92.7066 55.4946 92.4339C55.684 92.1574 55.7787 91.8316 55.7787 91.4566C55.7787 90.9755 55.6101 90.5721 55.273 90.2464C54.9359 89.9206 54.4188 89.7577 53.7219 89.7577H51.3241V93.2975ZM65.4292 96.2805V91.1725H67.1338V99.8998H65.4633V98.3884H65.3724C65.1717 98.8543 64.8497 99.2426 64.4065 99.5532C63.9671 99.86 63.4198 100.013 62.7645 100.013C62.2039 100.013 61.7077 99.8903 61.2758 99.6441C60.8478 99.3941 60.5107 99.0248 60.2645 98.5361C60.022 98.0475 59.9008 97.4433 59.9008 96.7236V91.1725H61.5997V96.5191C61.5997 97.1138 61.7645 97.5873 62.094 97.9396C62.4236 98.2918 62.8516 98.468 63.3781 98.468C63.6963 98.468 64.0126 98.3884 64.327 98.2293C64.6452 98.0702 64.9084 97.8297 65.1167 97.5077C65.3289 97.1858 65.433 96.7767 65.4292 96.2805ZM71.1153 94.718V99.8998H69.4165V91.1725H71.0471V92.593H71.1551C71.3559 92.1308 71.6702 91.7596 72.0983 91.4793C72.5301 91.199 73.0737 91.0589 73.729 91.0589C74.3237 91.0589 74.8445 91.1839 75.2915 91.4339C75.7384 91.6801 76.085 92.0475 76.3312 92.5361C76.5774 93.0248 76.7006 93.6289 76.7006 94.3486V99.8998H75.0017V94.5532C75.0017 93.9206 74.8369 93.4263 74.5074 93.0702C74.1778 92.7104 73.7252 92.5305 73.1494 92.5305C72.7555 92.5305 72.4051 92.6157 72.0983 92.7861C71.7952 92.9566 71.5547 93.2066 71.3767 93.5361C71.2024 93.8619 71.1153 94.2558 71.1153 94.718ZM80.5415 96.9396L80.5301 94.8657H80.8256L84.3028 91.1725H86.3369L82.371 95.3771H82.104L80.5415 96.9396ZM78.979 99.8998V88.2634H80.6778V99.8998H78.979ZM84.4903 99.8998L81.3653 95.7521L82.5358 94.5646L86.5756 99.8998H84.4903ZM91.2872 100.076C90.4273 100.076 89.6868 99.8922 89.0656 99.5248C88.4482 99.1536 87.9709 98.6327 87.6338 97.9623C87.3005 97.288 87.1338 96.4983 87.1338 95.593C87.1338 94.699 87.3005 93.9111 87.6338 93.2293C87.9709 92.5475 88.4406 92.0153 89.0429 91.6327C89.6489 91.2502 90.3573 91.0589 91.1679 91.0589C91.6603 91.0589 92.1376 91.1403 92.5997 91.3032C93.0618 91.4661 93.4766 91.7217 93.844 92.0702C94.2114 92.4187 94.5012 92.8714 94.7133 93.4282C94.9255 93.9812 95.0315 94.6536 95.0315 95.4452V96.0475H88.094V94.7748H93.3667C93.3667 94.3278 93.2758 93.932 93.094 93.5873C92.9122 93.2388 92.6565 92.9642 92.327 92.7634C92.0012 92.5627 91.6186 92.4623 91.1792 92.4623C90.702 92.4623 90.2853 92.5797 89.9292 92.8146C89.577 93.0456 89.3042 93.3486 89.1111 93.7236C88.9217 94.0949 88.827 94.4983 88.827 94.9339V95.9282C88.827 96.5115 88.9292 97.0077 89.1338 97.4168C89.3421 97.8259 89.6319 98.1384 90.0031 98.3543C90.3743 98.5664 90.808 98.6725 91.3042 98.6725C91.6262 98.6725 91.9198 98.6271 92.1849 98.5361C92.4501 98.4414 92.6792 98.3013 92.8724 98.1157C93.0656 97.9301 93.2133 97.7009 93.3156 97.4282L94.9236 97.718C94.7948 98.1914 94.5637 98.6062 94.2304 98.9623C93.9008 99.3146 93.4861 99.5892 92.9861 99.7861C92.4898 99.9793 91.9236 100.076 91.2872 100.076ZM96.9165 99.8998V91.1725H98.5585V92.5589H98.6494C98.8085 92.0892 99.0888 91.7199 99.4903 91.4509C99.8956 91.1782 100.354 91.0418 100.865 91.0418C100.971 91.0418 101.096 91.0456 101.24 91.0532C101.388 91.0608 101.504 91.0702 101.587 91.0816V92.7066C101.519 92.6877 101.398 92.6668 101.223 92.6441C101.049 92.6176 100.875 92.6043 100.701 92.6043C100.299 92.6043 99.9411 92.6896 99.6267 92.86C99.3161 93.0267 99.0699 93.2596 98.8881 93.5589C98.7062 93.8543 98.6153 94.1914 98.6153 94.5702V99.8998H96.9165Z" fill="#338896"/>
</svg>
