<svg width="55" height="47" viewBox="0 0 55 47" fill="none" xmlns="http://www.w3.org/2000/svg">
<rect x="0.736816" y="0.507812" width="54" height="46" rx="5" fill="#75ACB1"/>
<path d="M34.4439 24.8007C34.0534 24.4102 33.4202 24.4102 33.0297 24.8007C32.6392 25.1912 32.6392 25.8244 33.0297 26.2149L34.4439 24.8007ZM37.7368 29.5078L38.4439 30.2149C38.8344 29.8244 38.8344 29.1912 38.4439 28.8007L37.7368 29.5078ZM33.0297 32.8007C32.6392 33.1912 32.6392 33.8244 33.0297 34.2149C33.4202 34.6054 34.0534 34.6054 34.4439 34.2149L33.0297 32.8007ZM17.7368 28.5078C17.1845 28.5078 16.7368 28.9555 16.7368 29.5078C16.7368 30.0601 17.1845 30.5078 17.7368 30.5078V28.5078ZM21.0297 22.2149C21.4202 22.6054 22.0534 22.6054 22.4439 22.2149C22.8344 21.8244 22.8344 21.1912 22.4439 20.8007L21.0297 22.2149ZM17.7368 17.5078L17.0297 16.8007C16.6392 17.1912 16.6392 17.8244 17.0297 18.2149L17.7368 17.5078ZM22.4439 14.2149C22.8344 13.8244 22.8344 13.1912 22.4439 12.8007C22.0534 12.4102 21.4202 12.4102 21.0297 12.8007L22.4439 14.2149ZM37.7368 18.5078C38.2891 18.5078 38.7368 18.0601 38.7368 17.5078C38.7368 16.9555 38.2891 16.5078 37.7368 16.5078V18.5078ZM33.0297 26.2149L37.0297 30.2149L38.4439 28.8007L34.4439 24.8007L33.0297 26.2149ZM37.0297 28.8007L33.0297 32.8007L34.4439 34.2149L38.4439 30.2149L37.0297 28.8007ZM17.7368 30.5078H37.7368V28.5078H17.7368V30.5078ZM22.4439 20.8007L18.4439 16.8007L17.0297 18.2149L21.0297 22.2149L22.4439 20.8007ZM18.4439 18.2149L22.4439 14.2149L21.0297 12.8007L17.0297 16.8007L18.4439 18.2149ZM37.7368 16.5078H17.7368V18.5078H37.7368V16.5078Z" fill="white"/>
</svg>
