<svg width="55" height="47" viewBox="0 0 55 47" fill="none" xmlns="http://www.w3.org/2000/svg">
<rect x="0.236816" y="0.507812" width="54" height="46" rx="5" fill="#75ACB1"/>
<path d="M23.1712 20.7553C22.7807 20.3647 22.1475 20.3647 21.757 20.7553C21.3665 21.1458 21.3665 21.7789 21.757 22.1695L23.1712 20.7553ZM27.2368 26.2351L26.5297 26.9422C26.9202 27.3327 27.5534 27.3327 27.9439 26.9422L27.2368 26.2351ZM32.7167 22.1695C33.1072 21.7789 33.1072 21.1458 32.7167 20.7553C32.3261 20.3647 31.693 20.3647 31.3024 20.7553L32.7167 22.1695ZM28.2368 13.5078C28.2368 12.9555 27.7891 12.5078 27.2368 12.5078C26.6845 12.5078 26.2368 12.9555 26.2368 13.5078H28.2368ZM38.2368 26.2351C38.2368 25.6828 37.7891 25.2351 37.2368 25.2351C36.6845 25.2351 36.2368 25.6828 36.2368 26.2351H38.2368ZM18.2368 26.2351C18.2368 25.6828 17.7891 25.2351 17.2368 25.2351C16.6845 25.2351 16.2368 25.6828 16.2368 26.2351H18.2368ZM21.757 22.1695L26.5297 26.9422L27.9439 25.528L23.1712 20.7553L21.757 22.1695ZM27.9439 26.9422L32.7167 22.1695L31.3024 20.7553L26.5297 25.528L27.9439 26.9422ZM26.2368 13.5078V26.2351H28.2368V13.5078H26.2368ZM36.2368 26.2351V32.5987H38.2368V26.2351H36.2368ZM36.2368 32.5987C36.2368 32.5746 36.2464 32.5515 36.2634 32.5344L37.6777 33.9487C38.0357 33.5906 38.2368 33.105 38.2368 32.5987H36.2368ZM36.2634 32.5344C36.2805 32.5174 36.3036 32.5078 36.3277 32.5078V34.5078C36.834 34.5078 37.3196 34.3067 37.6777 33.9487L36.2634 32.5344ZM36.3277 32.5078H18.1459V34.5078H36.3277V32.5078ZM18.1459 32.5078C18.17 32.5078 18.1931 32.5174 18.2102 32.5344L16.796 33.9487C17.154 34.3067 17.6396 34.5078 18.1459 34.5078V32.5078ZM18.2102 32.5344C18.2272 32.5515 18.2368 32.5746 18.2368 32.5987H16.2368C16.2368 33.105 16.438 33.5906 16.796 33.9487L18.2102 32.5344ZM18.2368 32.5987V26.2351H16.2368V32.5987H18.2368Z" fill="white"/>
</svg>
